<svg width="16" height="18" viewBox="0 0 16 18" fill="none" xmlns="http://www.w3.org/2000/svg">
<path d="M1 4.2L3.33333 1H12.6667L15 4.2M1 4.2V15.4C1 15.8243 1.16389 16.2313 1.45561 16.5314C1.74733 16.8314 2.143 17 2.55556 17H13.4444C13.857 17 14.2527 16.8314 14.5444 16.5314C14.8361 16.2313 15 15.8243 15 15.4V4.2M1 4.2H15M11.1111 7.4C11.1111 8.24869 10.7833 9.06263 10.1999 9.66274C9.61644 10.2629 8.82512 10.6 8 10.6C7.17488 10.6 6.38356 10.2629 5.80011 9.66274C5.21667 9.06263 4.88889 8.24869 4.88889 7.4" stroke="black" stroke-width="2" stroke-linecap="round" stroke-linejoin="round"/>
</svg>
