<svg width="22" height="32" viewBox="0 0 22 32" fill="none" xmlns="http://www.w3.org/2000/svg">
<path d="M9.31123 17.5924L6.02113 12.5474L0 12.3977L3.78137 7.70963L2.06315 1.9369L7.69025 4.08449L12.6495 0.666536L12.3459 6.68175L17.129 10.342L11.3143 11.9122L9.31123 17.5924Z" fill="#040506"/>
<path d="M11.5038 26.2446L7.51274 25.2752L4.45172 28.0131L4.14047 23.9181L0.590728 21.8528L4.38917 20.2915L5.25626 16.2772L7.91511 19.4072L12.0009 18.9913L9.84573 22.4873L11.5038 26.2446Z" fill="#040506"/>
<path d="M17.6716 30.8874L15.1611 30.2776L13.2355 32L13.0397 29.4239L10.8064 28.1248L13.1961 27.1425L13.7415 24.6173L15.4141 26.5863L17.9844 26.3247L16.6287 28.5239L17.6716 30.8874Z" fill="#040506"/>
<path d="M21.2605 6.27009L18.75 5.66028L16.8244 7.38266L16.6286 4.8066L14.3955 3.50746L16.7851 2.52516L17.3306 0L19.0031 1.96897L21.5735 1.70737L20.2177 3.90657L21.2605 6.27009Z" fill="#040506"/>
</svg>
